<svg xmlns="http://www.w3.org/2000/svg" width="201.979" height="52" viewBox="0 0 201.979 52"><defs><style>.a{fill:#fff;}</style></defs><g transform="translate(-721.692 -1946.843)"><g transform="translate(737.141 1946.843)"><path class="a" d="M949.733,1955.374v5l-9.4-5.85v41.317l-4.093,2.559c0-29.619,0-51.341,0-51.432a.13.13,0,0,1,.033-.1.111.111,0,0,1,.077-.025Zm-9.4,6.094,9.4,5.972v5.119l-9.4-5.972Z" transform="translate(-936.239 -1946.843)"/></g><g transform="translate(721.692 1946.843)"><path class="a" d="M735.076,1946.843a.112.112,0,0,1,.077.025.131.131,0,0,1,.033.1c0,.092,0,21.813,0,51.432l-4.093-2.559v-41.317l-9.4,5.85v-5Zm-3.982,19.744-9.4,5.972v-5.119l9.4-5.972Z" transform="translate(-721.692 -1946.843)"/></g><path class="a" d="M32.927,170.974v-2.628H24.149v13.345h2.628v-4.031h3.9v-2.628h-3.9v-4.057ZM42.24,178.5A6.131,6.131,0,0,0,37.6,168.346H34.075v13.345H36.7v-1.072H37.6a5.863,5.863,0,0,0,2.756-.663l1.021,1.735H44.1ZM36.7,178.22v-7.476H37.6a3.738,3.738,0,0,1,0,7.476Zm16.1-9.9a6.685,6.685,0,1,0,6.66,6.685A6.675,6.675,0,0,0,52.8,168.32Zm0,10.946a4.261,4.261,0,1,1,4.261-4.261A4.274,4.274,0,0,1,52.8,179.267Zm11.967-.077,6.787-8.369v-2.5H62.78v2.5h5.333l-6.762,8.369v2.5H71.583v-2.5Zm11.278-.128v-1.4h3.9v-2.628h-3.9v-4.057H82.2v-2.628H73.42v13.345h9.211v-2.628Zm16.84-10.717V176.1L87.1,168.346H84.468v13.345H87.1v-8.956l5.792,7.757v1.2h2.628V168.346Zm22.25,2.628v-2.628H106.36v13.345h2.628v-4.031h3.9v-2.628h-3.9v-4.057Zm7.833-2.654a6.685,6.685,0,1,0,6.66,6.685A6.675,6.675,0,0,0,122.971,168.32Zm0,10.946a4.261,4.261,0,1,1,4.261-4.261A4.274,4.274,0,0,1,122.971,179.267Zm16.713-.765a6.131,6.131,0,0,0-4.644-10.155h-3.521v13.345h2.628v-1.072h.893a5.863,5.863,0,0,0,2.756-.663l1.021,1.735h2.73Zm-5.537-.281v-7.476h.893a3.738,3.738,0,0,1,0,7.476Zm12.043.842v-1.4h3.9v-2.628h-3.9v-4.057h6.149v-2.628h-8.777v13.345h9.211v-2.628Zm13.727-5.333-.663-.281c-1.148-.51-1.658-.816-1.658-1.633a1.186,1.186,0,0,1,1.3-1.148,1.718,1.718,0,0,1,1.582.919L162.392,170a3.923,3.923,0,0,0-3.5-1.684c-2.4,0-3.929,1.531-3.929,3.547,0,2.194,1.276,3.215,3.215,4.057l.663.281c1.225.536,1.965.868,1.965,1.786,0,.765-.714,1.327-1.837,1.327a2.781,2.781,0,0,1-2.424-1.327l-1.99,1.607a5.23,5.23,0,0,0,4.491,2.092c2.526,0,4.44-1.327,4.44-3.751C163.49,175.694,162.214,174.7,159.917,173.73Zm15.36-5.409H164.842v2.628h3.9v10.742h2.628V170.949h3.9Z" transform="translate(739.987 1804.292)"/><g transform="translate(755.726 1968.961)"><g transform="translate(0 0)"><path class="a" d="M1194.341,2274.385v-20.373h5.24v2.147h-2.428v16.079h2.428v2.147Z" transform="translate(-1194.341 -2254.012)"/></g></g><g transform="translate(918.43 1968.962)"><g transform="translate(0 0)"><path class="a" d="M3453.924,2274.394v-2.147h2.428v-16.079h-2.428v-2.147h5.24v20.373Z" transform="translate(-3453.924 -2254.021)"/></g></g></g></svg>