<svg xmlns="http://www.w3.org/2000/svg" width="262.855" height="205.905" viewBox="0 0 262.855 205.905"><defs><style>.a{fill:#feece3;}.b{fill:#cb6b36;}</style></defs><g transform="translate(0 154.951)"><path class="a" d="M126.566,310.39l-6.855-22.709h0l-.415-1.375H103.639V310.39H98.415V259.755h25.127a5.678,5.678,0,0,1,5.815,5.362v15.765a5.6,5.6,0,0,1-4.176,5.182l-3.012.891,1.362.774a5.128,5.128,0,0,1,2.444,3.032l5.987,19.63Zm-22.927-29.307h20.494v-16.1H103.639Z" transform="translate(-98.415 -259.436)"/><path class="a" d="M174.873,308.925a3.372,3.372,0,0,1-2.536,1.493l-.147.011H157.884l1.591-5.246h10.054l-11.345-36.657-13.621,41.9h-5.576l16.869-50.954h4.731l14.705,46.539A3.371,3.371,0,0,1,174.873,308.925Z" transform="translate(-92.781 -259.475)"/><path class="a" d="M213.316,264.864v40.117a5.732,5.732,0,0,1-5.841,5.448H182.232V259.475h25.243A5.7,5.7,0,0,1,213.316,264.864Zm-5.246-.142H187.482v40.462h20.588Z" transform="translate(-86.775 -259.475)"/><path class="a" d="M248.3,305.178l1.578,5.216h-20.7a5.493,5.493,0,0,1-5.6-5.358V259.729H228.8v45.449Z" transform="translate(-81.034 -259.44)"/><path class="a" d="M291.639,265.086v39.892a4.907,4.907,0,0,1-.479,2.1,5.309,5.309,0,0,1-.966,1.418,5.985,5.985,0,0,1-4.366,1.894H266.542a5.667,5.667,0,0,1-5.807-5.355V265.146a5.7,5.7,0,0,1,5.807-5.414h19.286a6.023,6.023,0,0,1,4.366,1.871,5.361,5.361,0,0,1,.966,1.4A4.83,4.83,0,0,1,291.639,265.086Zm-5.216-.141H265.948v40.236h20.476Z" transform="translate(-75.874 -259.439)"/><path class="a" d="M307.769,259.475h25.24v5.247H307.175v17.606h20.24L326,286.581H307.175v23.848h-5.247V264.923A5.732,5.732,0,0,1,307.769,259.475Z" transform="translate(-70.153 -259.475)"/></g><path class="b" d="M270.228,132.892a49.907,49.907,0,0,1-.369,5.169,49.392,49.392,0,0,1-3.011,11.909,54.526,54.526,0,0,0-10.71-22.662q-1.6-2.007-3.42-3.89l-3.66,3.66a50.147,50.147,0,0,1,3.394,3.915,49.566,49.566,0,0,1,10.34,27.064,50.335,50.335,0,0,1-4.1,5.662c-.8-1.186-1.649-2.347-2.553-3.48q-1.6-2.006-3.42-3.889l-3.66,3.66a50.158,50.158,0,0,1,3.394,3.915c.935,1.2,1.8,2.437,2.61,3.7a49.972,49.972,0,0,1-8.445,6.611,49.6,49.6,0,0,1-52.213,0,49.932,49.932,0,0,1-7.1-5.33,49.481,49.481,0,0,1,6.807-8.9l-3.66-3.66q-1.818,1.881-3.42,3.889a54.332,54.332,0,0,0-3.486,4.911,50.832,50.832,0,0,1-3.3-4.077v-.1a49.625,49.625,0,0,1,10.469-29.981,50.143,50.143,0,0,1,3.394-3.915l-3.66-3.66q-1.818,1.883-3.42,3.89A54.579,54.579,0,0,0,175.7,153.461a49.4,49.4,0,0,1-4.536-15.4,49.907,49.907,0,0,1-.369-5.169h-5.177q.046,2.615.333,5.169a54.562,54.562,0,0,0,9.17,24.7,55.35,55.35,0,0,0,5.838,7.186q-.381-2.241-.553-4.507.171,2.18.53,4.341c.009.055.015.11.024.165,1.231,1.28,2.535,2.487,3.884,3.644a55.2,55.2,0,0,0,5.711,4.313l7.8,13.517h-14.3l36.45,63.131,36.448-63.131H242.665l7.8-13.517a55.259,55.259,0,0,0,7.226-5.644q2-1.848,3.819-3.882c.371-.418.741-.837,1.1-1.265a55.143,55.143,0,0,0,5.412-7.718,54.475,54.475,0,0,0,7.046-21.332q.287-2.552.333-5.169Zm-89.947,30.375q.036,1.066.12,2.13Q180.319,164.332,180.281,163.267Zm67.725,33.322-27.5,47.625-27.5-47.625h8.326l19.171,33.2,19.169-33.2Zm-11.31-5.168-2.984,5.168-13.2,22.867-13.2-22.867-2.985-5.168-5.137-8.9a54.913,54.913,0,0,0,42.648,0Z" transform="translate(-89.083 -123.418)"/></svg>